<?xml version="1.0" encoding="UTF-8"?>
<svg width="220.58mm" height="80.318mm" version="1.1" viewBox="0 0 220.58 80.318" xml:space="preserve" xmlns="http://www.w3.org/2000/svg"><g transform="translate(273.64 -96.098)"><circle cx="-174.71" cy="-47.899" r="0" fill="#f00" opacity=".582"/><circle cx="-174.71" cy="-47.899" r="0" fill="#f00" opacity=".582"/><circle cx="-233.62" cy="136.08" r="28.401" fill="#94b43b"/><path d="m-254.07 126.35c5e-3 3.1361-7e-3 6.2784 8.1e-4 9.4115-4e-5 5.1975 3.0469 9.4115 9.4107 9.4115 3.0982-5e-3 6.2896 0 9.4115 0v-18.823h-3.12v9.7627c1.3e-4 3.2979-2.8168 5.9714-6.2915 5.9712-3.4744-1.8e-4 -6.2908-2.6735-6.2907-5.9712v-9.7627h-3.1208z" fill="#fff"/><path d="m-213.27 145.18c-5e-3 -3.1361 7e-3 -6.2785-8.1e-4 -9.4115 4e-5 -5.1975-3.0469-9.4115-9.4107-9.4115-3.0982 5e-3 -6.2897 0-9.4115 0v18.823h3.12v-9.7627c-1.3e-4 -3.2979 2.8168-5.9714 6.2915-5.9712 3.4744 1.8e-4 6.2908 2.6736 6.2907 5.9712v9.7627h3.1208z" fill="#fff"/><g transform="matrix(.40493 0 0 .40493 -354.13 -54.026)" fill="#fff" stroke-width="1px"><path d="m213.03 500.97c2.834-0.88292 3.6514-3.1081 2.812-5.8024-0.97617-3.1333-3.2197-4.3611-6.2732-3.4098l-7.7036 2.4 0.54094 1.7363 8.1427-2.5368c1.876-0.58446 3.0899 0.21967 3.5935 1.8362 0.57825 1.856 0.11179 3.3807-2.343 4.1455l-7.5839 2.3627 0.57203 1.8361z"/><path d="m211.65 472.38-0.12383-1.7515-12.761 0.90218 0.11793 1.6681 9.7794-0.69138-9.3268 7.0928 0.13415 1.8975 12.761-0.90218-0.11793-1.6681-9.9045 0.70022z"/><path d="m199.62 457.27-0.21701 1.9109 12.711 1.4436 0.21702-1.9108z"/><path d="m215.45 444.15-10.925-8.1746-0.53883 1.8243 9.2126 6.6662-11.338 0.53084-0.58028 1.9646 13.566-0.76658z"/><path d="m220.16 432.02 3.5304-6.6221-1.3036-0.93183-2.6502 5.1489-3.9106-2.0848 2.2385-4.0655-1.1744-0.86299-2.2815 4.2795-3.5601-1.8979 2.5421-4.5906-1.2482-0.90234-3.4714 6.5115z"/><path d="m225.97 410.8c-0.37183 0.45202-0.73324 0.85847-1.1108 1.2516l-3.6162-2.9746c0.276-0.36843 0.59185-0.7853 0.84416-1.092 1.0756-1.3076 2.4528-1.5011 3.712-0.46527 1.2108 0.99597 0.96756 2.3117 0.17078 3.2803zm0.7439 1.2345c0.18592-0.22601 0.35569-0.4653 0.5226-0.73402l5.8989 1.2525 1.3944-1.6951-6.6507-1.1942c0.32289-1.4126 0.0268-2.9282-1.2646-3.9906-1.6144-1.328-3.5847-0.97282-5.311 1.1258l-2.3638 2.8736 9.8799 8.1271 1.2217-1.4852-4.1005-3.373c0.27887-0.33902 0.60045-0.69704 0.77308-0.9069z"/><path d="m239.04 398.86c2.2536-0.71382 3.0012-0.46199 3.7173 0.41056 0.76917 0.93719 0.41794 2.0908-0.63235 2.9528-0.90487 0.74265-1.9734 1.187-3.1378 1.5476l0.7937 1.5931c0.73505-0.22468 2.0091-0.94583 2.7524-1.5559 2.3914-1.9627 2.8158-4.3122 1.304-6.1542-0.9681-1.1796-2.1511-1.5337-4.9517-0.69549-1.9744 0.59278-2.8201 0.58378-3.5494-0.30493-0.68961-0.84024-0.55133-1.792 0.45048-2.6143 0.90487-0.74265 1.869-1.1824 2.9451-1.5517l-0.69218-1.5683c-0.63063 0.22011-1.6462 0.72907-2.7772 1.6574-2.1006 1.724-2.3928 3.938-1.1197 5.4892 1.0609 1.2927 2.4909 1.5523 4.8974 0.79412z"/><path d="m249.11 383.45-1.6652 0.96197 6.3992 11.078 1.6652-0.96197z"/><path d="m260.18 377.96 4.2045 11.861c0.75119-0.13322 2.2059-0.47148 3.3684-0.88355 3.8814-1.3759 5.8328-4.8177 4.38-8.9158-1.2502-3.5267-4.2887-4.7783-7.7957-3.5351zm2.2806 0.6775 1.7535-0.6216c2.6007-0.92192 5.0763-0.0696 6.1589 2.9843 1.2642 3.5661-0.31122 5.5662-2.4194 6.3135-0.68958 0.24444-1.5577 0.48566-2.2034 0.60366z"/><path d="m288.23 378.6-3.7557 0.45835 1.1782-5.7033zm2.5001 5.128 1.992-0.24311-6.094-12.144-2.1372 0.26083-3.0359 13.258 1.8675-0.22791 0.84684-4.1045 4.7102-0.57484z"/><path d="m302.3 370.74-1.2018 12.526c0.73711 0.19672 2.1985 0.50492 3.4262 0.6227 4.0992 0.39327 7.3223-1.9015 7.7375-6.2296 0.35734-3.7246-1.8676-6.1431-5.5714-6.4984zm1.7806 1.5778 1.8519 0.17767c2.7467 0.26352 4.6302 2.0822 4.3207 5.3074-0.36133 3.7663-2.6343 4.9132-4.8608 4.6996-0.72828-0.0699-1.617-0.21813-2.2521-0.38406z"/><path d="m338.06 393.56 1.58 0.76606 5.5813-11.511-1.5048-0.72959-4.2772 8.8216-1.4973-11.621-1.7116-0.8299-5.5813 11.511 1.5048 0.72958 4.3319-8.9345z"/><path d="m355.79 399.06-2.9617-2.3545 4.8905-3.1621zm-1.8998 5.3794 1.5708 1.2488 4.3775-12.863-1.6854-1.3398-11.577 7.1394 1.4727 1.1707 3.5188-2.2764 3.7144 2.9529z"/><path d="m368.41 417.04c-0.86899-0.39264-1.855-1.1228-2.5491-1.9593-1.4816-1.7857-1.8213-4.3558 1.171-6.8385 2.9118-2.4159 5.0886-1.5601 6.2232-0.19262 0.80085 0.96525 1.4832 2.2461 1.7036 3.0682l1.543-0.6283c-0.19915-0.7311-0.96437-2.079-1.7385-3.0121-2.5093-3.0244-6.251-3.0165-9.3237-0.46713-3.2336 2.6828-3.3105 6.0603-1.0414 8.7952 0.97436 1.1744 2.2866 2.0685 3.0755 2.3646z"/><path d="m383.75 421.24-0.95704-1.6681-11.096 6.3664 0.95704 1.6681z"/><path d="m387.06 444.82c3.8317-1.328 5.2703-4.3265 4.223-7.3484-1.2253-3.5354-4.518-5.2482-8.6262-3.8244-3.8515 1.3348-5.2772 4.3068-4.2298 7.3287 1.2253 3.5354 4.5248 5.268 8.633 3.8442zm-1.1896-1.6452c-3.2194 1.1158-5.1641-0.0908-5.8144-1.9671-0.81458-2.3504-0.0412-4.5874 3.7905-5.9154 3.1799-1.1021 5.1572 0.071 5.8075 1.9474 0.80774 2.3306 0.0283 4.614-3.7836 5.9351z"/><path d="m383.43 464.11 0.17525 1.7471 12.729-1.2768-0.16691-1.6639-9.7549 0.97847 9.1144-7.3638-0.18985-1.8927-12.729 1.2768 0.1669 1.6639 9.8797-0.99099z"/><path d="m388.06 482.09 0.44495-3.7573 5.2615 2.4965zm-5.5745 1.2133-0.236 1.9928 13.243-3.0416 0.25321-2.1381-12.161-6.0921-0.22124 1.8683 3.7868 1.7956-0.55804 4.7122z"/><path d="m380.19 493.39-2.1612 6.6609 1.4466 0.68912 1.5526-5.0563 10.737 3.4837 0.59351-1.8293z"/></g><g transform="matrix(.40493 0 0 .40493 -354.13 -54.026)" fill="#fff" stroke-width="1px"><path d="m228.9 522.66-9.5019 8.2505c0.39869 0.65045 1.2455 1.8807 2.0541 2.812 2.6999 3.1094 6.617 3.6671 9.9 0.8164 2.8253-2.4532 2.8791-5.739 0.43959-8.5485zm0.20336 2.3704 1.2198 1.4048c1.8091 2.0835 1.921 4.6993-0.52545 6.8236-2.8569 2.4806-5.2945 1.7457-6.7609 0.0569-0.47968-0.55243-1.0216-1.2722-1.3676-1.8301l7.4342-6.4551z"/><path d="m232.84 545.13 5.8589 4.6892 1.1559-1.1097-4.5729-3.5529 2.7691-3.4599 3.5839 2.9487 1.0645-0.99547-3.7863-3.0304 2.521-3.1498 4.0441 3.3438 1.1167-1.0608-5.761-4.6109z"/><path d="m264.53 561.34c-0.95209 0.0535-2.1639-0.13824-3.1661-0.55927-2.1392-0.89874-3.6283-3.0208-2.1223-6.6054 1.4655-3.4882 3.7914-3.7354 5.4295-3.0472 1.1563 0.48581 2.3534 1.3062 2.9289 1.9334l1.0779-1.2703c-0.51452-0.55627-1.8161-1.3979-2.9339-1.8675-3.6231-1.5222-6.9375 0.21429-8.4839 3.8952-1.6274 3.8736-0.13454 6.9043 3.1417 8.2807 1.4068 0.59106 2.9837 0.77742 3.8202 0.67537z"/><path d="m284.11 561.58c0.84155-3.967-0.9833-6.7474-4.1119-7.4111-3.6603-0.77649-6.8274 1.1587-7.7297 5.412-0.84588 3.9875 0.96285 6.7431 4.0915 7.4068 3.6603 0.77648 6.8478-1.1543 7.7501-5.4076zm-2.0232 0.16914c-0.70708 3.3331-2.7445 4.3754-4.6871 3.9633-2.4334-0.51621-3.9496-2.3337-3.1081-6.3007 0.6984-3.2922 2.7241-4.3797 4.6667-3.9676 2.4129 0.51187 3.9658 2.3585 3.1286 6.305z"/><path d="m291.73 568.87 6.9993 0.21831 0.25846-1.5814-5.2887-0.0813 0.35191-11.282-1.9222-0.06-0.39883 12.787z"/><path d="m317.02 560.51c-0.58411-4.013-3.2588-5.9896-6.4237-5.5289-3.7027 0.53895-6.0039 3.451-5.3776 7.7536 0.58712 4.0337 3.2381 5.9926 6.403 5.5319 3.7027-0.53895 6.0245-3.454 5.3983-7.7566zm-1.8395 0.85921c0.49078 3.3718-1.0598 5.055-3.0249 5.341-2.4616 0.3583-4.5134-0.82173-5.0975-4.8348-0.48476-3.3304 1.0391-5.052 3.0042-5.338 2.4409-0.35528 4.5371 0.83941 5.1182 4.8318z"/><path d="m332.08 562.87 1.4857-0.56274-0.24219-11.085 4.621 9.4261 1.7789-0.67381-5.8413-11.467-2.1112 0.79969 0.23153 10.821-7.1125-8.2142-2.0721 0.78488 3.1827 12.474 1.6812-0.63679-2.7882-10.076z"/><path d="m346.85 547.67c-0.37032 0.23571-0.87531 0.53236-1.3098 0.78412l-2.3122-3.6327 1.0581-0.67347c1.5166-0.9653 2.7751-0.7009 3.5384 0.49824 0.67347 1.0581 0.36576 2.1708-0.97446 3.0238zm3.5388 4.5865c-0.52904 0.33674-1.1927 0.73441-1.7506 1.0647l-2.3908-3.7561c0.44727-0.30947 0.96508-0.66384 1.3354-0.89956 1.7106-1.0888 3.1631-0.94784 3.9825 0.33948 0.79694 1.252 0.21668 2.3648-1.1764 3.2515zm-2.621 3.2789 2.8744-1.8296c2.7686-1.7622 3.6117-4.0582 2.3994-5.9627-1.0102-1.5871-2.716-1.542-3.9729-1.0641 0.58507-1.0662 0.77412-2.3264-3.6e-4 -3.5432-0.96531-1.5166-2.8972-1.7488-4.9781-0.42435l-3.1918 2.0316z"/><path d="m355.11 534.41-1.453 1.2598 8.3806 9.6658 1.453-1.2598z"/><path d="m370.34 529.25-2.4591 2.8754-2.9848-5.0006zm5.3079 2.0914 1.3043-1.5251-12.698-4.8356-1.3994 1.6363 6.7199 11.826 1.2228-1.4298-2.1489-3.5981 3.0841-3.6062z"/></g><g transform="matrix(20 0 0 20 -153.06 106.26)"><rect width="5" height="3"/><rect y="1" width="5" height="2" fill="#d00"/><rect y="2" width="5" height="1" fill="#ffce00"/></g><g transform="matrix(.66075 0 0 .66075 -188.35 121.26)" fill="#fff"><g fill="#fff">
	<path d="m41.267 18.557h-14.435v-14.423c0-2.283-1.842-4.134-4.125-4.134s-4.124 1.851-4.124 4.135v14.432h-14.442c-2.283 0-4.139 1.851-4.138 4.135-1e-3 1.141 0.46 2.187 1.207 2.934 0.748 0.749 1.78 1.222 2.92 1.222h14.453v14.412c0 1.142 0.453 2.176 1.201 2.922 0.748 0.748 1.777 1.211 2.919 1.211 2.282 0 4.129-1.851 4.129-4.133v-14.413h14.435c2.283 0 4.134-1.867 4.133-4.15-1e-3 -2.282-1.852-4.15-4.133-4.15z" fill="#fff"/>
</g></g></g></svg>
